# xmcd
#
# Track frame offsets: 
#        150
#        15565
#        28152
#        43067
#        53305
#        69982
#        83152
#        93612
#        107020
#        117330
#        129612
#        139510
#        162600
#
# Disc length: 3425 seconds
#
# Revision: 0
# Processed by: cddbd v1.5PL3 Copyright (c) Steve Scherf et al.
# Submitted via: ExactAudioCopy v0.95a4
#
DISCID=a90d5f0d
DTITLE=Crystal Gayle - Best Always
DYEAR=1993
DGENRE=Country
TTITLE0=Ready for the Times to Get Better
TTITLE1=Crazy
TTITLE2=For the Good Times
TTITLE3=Silver Threads and Golden Needles
TTITLE4=When I Dream
TTITLE5=Talkin'in Your Sleep
TTITLE6=Oh Lonesome Me
TTITLE7=I Fall to Pieces
TTITLE8=Beyond You
TTITLE9=Don't It Make My Brown Eyes Blue
TTITLE10=Break My Mind
TTITLE11=Always
TTITLE12=Monkey's Audio Files
EXTD=
EXTT0=
EXTT1=
EXTT2=
EXTT3=
EXTT4=
EXTT5=
EXTT6=
EXTT7=
EXTT8=
EXTT9=
EXTT10=
EXTT11=
EXTT12=
PLAYORDER=
